<svg id="Layer_5" enable-background="new 0 0 62 62" height="512" viewBox="0 0 62 62" width="512" xmlns="http://www.w3.org/2000/svg" xmlns:xlink="http://www.w3.org/1999/xlink"><linearGradient id="SVGID_1_" gradientUnits="userSpaceOnUse" x1="31" x2="31" y1="62" y2="0"><stop offset="0" stop-color="#9f2fff"/><stop offset="1" stop-color="#0bb1d3"/></linearGradient><path d="m2.022 53.822-.836 1.749 5.244 5.242 1.748-.836c.157.069.314.135.471.196l.643 1.827h7.415l.645-1.826c.157-.062.314-.127.471-.196l1.748.836 5.244-5.242-.836-1.749c.069-.155.134-.313.196-.471l1.825-.644v-5.708h18v-28h-28v15h2v-13h24v24h-16.829l-.998-.352c-.062-.158-.127-.315-.196-.471l.836-1.749-5.244-5.242-1.748.836c-.157-.069-.314-.135-.471-.196l-.642-1.826h-7.416l-.645 1.826c-.157.062-.314.127-.471.196l-1.746-.835-5.244 5.242.836 1.749c-.069.155-.134.313-.196.471l-1.826.643v7.416l1.826.644c.062.158.127.315.196.47zm-.022-7.114 1.392-.491.157-.458c.132-.385.292-.771.477-1.146l.214-.436-.638-1.335 3.242-3.242 1.334.639.435-.214c.381-.187.766-.347 1.146-.477l.458-.156.491-1.392h4.585l.491 1.393.458.156c.38.13.765.29 1.146.477l.435.214 1.334-.639 3.242 3.242-.638 1.335.214.436c.185.375.345.761.477 1.146l.157.458 1.391.49v4.584l-1.392.491-.157.458c-.132.385-.292.771-.477 1.146l-.214.436.638 1.335-3.242 3.242-1.334-.639-.435.214c-.381.187-.766.347-1.146.477l-.458.156-.491 1.392h-4.585l-.491-1.393-.458-.156c-.38-.13-.765-.29-1.146-.477l-.435-.214-1.334.639-3.242-3.242.638-1.335-.214-.436c-.185-.375-.345-.761-.477-1.146l-.157-.458-1.391-.49zm9.961 9.566-1.923-.549 4-14 1.923.549zm4.332-4.981 2.293-2.293-2.293-2.293 1.414-1.414 3.707 3.707-3.707 3.707zm-8 1.414-3.707-3.707 3.707-3.707 1.414 1.414-2.293 2.293 2.293 2.293zm49.707-36.707v.586l2.293-2.293 1.414 1.414-4.707 4.707-4.707-4.707 1.414-1.414 2.293 2.293v-.586c0-7.72-6.28-14-14-14-5.046 0-9.638 2.705-12.119 7.003.04 0 .079-.003.119-.003 13.233 0 24 10.767 24 24 0 9.83-5.943 18.294-14.422 22h18.008l-3.293-3.293 1.414-1.414 5.707 5.707-5.707 5.707-1.414-1.414 3.293-3.293h-30.586v-2h3c12.131 0 22-9.869 22-22s-9.869-22-22-22c-11.261 0-20.568 8.507-21.845 19.431l3.138-3.138 1.414 1.414-5.79 5.79-4.698-5.873 1.562-1.249 2.37 2.963c1.24-11.185 10.195-20.078 21.41-21.215 2.649-5.558 8.245-9.123 14.439-9.123 8.822 0 16 7.178 16 16zm-2 13h6v-6h-6zm2-4h2v2h-2zm-2 12h6v-6h-6zm2-4h2v2h-2zm-2 12h6v-6h-6zm2-4h2v2h-2zm-36-18v2h-2v-2zm18 2h-16v-2h16zm-14 4v-2h14v2zm-6-2h4v2h-4zm0 4h20v2h-20zm20 12v-8h-14v8zm-12-6h10v4h-10z" fill="url(#SVGID_1_)"/></svg>