<svg id="Layer_1" enable-background="new 0 0 800 800" viewBox="0 0 800 800" xmlns="http://www.w3.org/2000/svg" xmlns:xlink="http://www.w3.org/1999/xlink"><linearGradient id="SVGID_1_" gradientUnits="userSpaceOnUse" x1="74.7" x2="725.3" y1="400.019" y2="400.019"><stop offset=".00000011188" stop-color="#b64dff"/><stop offset="1" stop-color="#11bbe9"/></linearGradient><g><g><path d="m193.5 316.7 56.5-50.9c10.3-9.2 11.1-25 1.9-35.3s-25-11.1-35.3-1.9l-56.5 50.9c-55.1 49.6-85.4 76.9-85.4 117.7s30.3 68.1 85.4 117.7l56.5 50.9c4.8 4.3 10.7 6.4 16.7 6.4 6.9 0 13.7-2.8 18.6-8.3 9.2-10.3 8.4-26.1-1.9-35.3l-56.5-50.9c-47.8-42.9-68.9-62.7-68.9-80.5s21.2-37.5 68.9-80.5zm446.4-37.2-56.5-50.9c-10.3-9.2-26.1-8.4-35.3 1.9s-8.4 26.1 1.9 35.3l56.5 50.9c47.8 42.9 68.9 62.7 68.9 80.5s-21.2 37.5-68.9 80.5l-56.5 50.9c-10.3 9.2-11.1 25-1.9 35.3 4.9 5.5 11.8 8.3 18.6 8.3 5.9 0 11.9-2.2 16.6-6.4l56.6-50.9c55.1-49.6 85.4-76.9 85.4-117.7s-30.3-68.1-85.4-117.7zm-167.2-150.8c-13.3-3.6-27 4.4-30.6 17.7l-132.5 494.3c-3.6 13.3 4.4 27 17.7 30.6 2.2.6 4.4.9 6.5.9 11 0 21.1-7.4 24.1-18.6l132.5-494.3c3.6-13.3-4.4-27-17.7-30.6z" fill="url(#SVGID_1_)"/></g></g></svg>