<svg clip-rule="evenodd" fill-rule="evenodd" stroke-linejoin="round" stroke-miterlimit="2" viewBox="0 0 100 101" xmlns="http://www.w3.org/2000/svg" xmlns:xlink="http://www.w3.org/1999/xlink"><linearGradient id="_Linear1" gradientTransform="matrix(0 98 -473.149 0 50 1.5)" gradientUnits="userSpaceOnUse" x1="0" x2="1" y1="0" y2="0"><stop offset="0" stop-color="#36bddb"/><stop offset="1" stop-color="#9d30ff"/></linearGradient><path d="m17.994 99.5h9.145c1.076 0 1.95-.874 1.95-1.95s-.874-1.95-1.95-1.95h-9.145c-1.076 0-1.95.874-1.95 1.95s.874 1.95 1.95 1.95zm36.578 0h9.145c1.076 0 1.95-.874 1.95-1.95s-.874-1.95-1.95-1.95h-9.145c-1.076 0-1.95.874-1.95 1.95s.874 1.95 1.95 1.95zm-18.289 0h9.145c1.076 0 1.95-.874 1.95-1.95s-.874-1.95-1.95-1.95h-9.145c-1.076 0-1.95.874-1.95 1.95s.874 1.95 1.95 1.95zm36.578 0h9.145c1.076 0 1.95-.874 1.95-1.95s-.874-1.95-1.95-1.95h-9.145c-1.076 0-1.95.874-1.95 1.95s.874 1.95 1.95 1.95zm-53.557-37.717 17.352-31.811c-.712-1.702-1.106-3.57-1.106-5.53 0-5.874 3.538-10.929 8.597-13.147v-4.045c0-1.525.606-2.987 1.684-4.066 1.079-1.078 2.541-1.684 4.067-1.684h.002c1.525 0 2.988.606 4.067 1.684 1.078 1.079 1.684 2.541 1.684 4.066v4.045c5.059 2.218 8.597 7.273 8.597 13.147 0 1.879-.362 3.673-1.02 5.318l17.468 32.023h7.304c1.076 0 1.95.874 1.95 1.95s-.874 1.95-1.95 1.95h-5.177l7.181 13.166c1.57 2.878.96 6.363-1.271 8.552l5.018 9.2c.518.95.168 2.141-.782 2.659-.949.518-2.141.168-2.659-.782l-5.018-9.199c-3.048.69-6.309-.684-7.879-3.562l-10.916-20.014h-10.846v4.378c0 1.471-.585 2.883-1.625 3.923-1.041 1.041-2.452 1.625-3.924 1.625h-.406c-1.472 0-2.883-.584-3.924-1.625-1.041-1.04-1.625-2.452-1.625-3.923v-4.378h-10.644l-10.916 20.014c-1.57 2.878-4.831 4.252-7.879 3.562l-5.018 9.199c-.518.95-1.71 1.3-2.659.782-.95-.518-1.3-1.709-.782-2.659l5.018-9.2c-2.231-2.189-2.841-5.674-1.271-8.552l7.181-13.166h-5.177c-1.076 0-1.95-.874-1.95-1.95s.874-1.95 1.95-1.95zm19.726-27.977-25.593 46.92c-.859 1.575-.278 3.552 1.297 4.411 1.576.859 3.552.278 4.411-1.297l25.185-46.171c-2.054-.867-3.865-2.198-5.3-3.863zm21.861-.145c-1.416 1.687-3.213 3.044-5.259 3.937l25.223 46.242c.859 1.575 2.835 2.156 4.411 1.297 1.575-.859 2.156-2.836 1.297-4.411zm-9.16 23.745c0-.432-.172-.847-.477-1.152-.306-.306-.72-.477-1.152-.477h-.406c-.432 0-.847.171-1.152.477-.306.305-.477.72-.477 1.152v12.675c0 .432.171.846.477 1.151.305.306.72.477 1.152.477h.406c.432 0 .846-.171 1.152-.477.305-.305.477-.719.477-1.151zm3.92 4.377h8.708l-12.606-23.111c-.607.079-1.226.119-1.854.119-.563 0-1.119-.032-1.664-.096l-12.594 23.088h8.506v-4.377c0-1.472.584-2.883 1.625-3.924s2.452-1.625 3.924-1.625h.406c1.472 0 2.883.584 3.924 1.625 1.04 1.041 1.625 2.452 1.625 3.924zm-11.504-46.039c-2.817 1.868-4.677 5.068-4.677 8.698 0 5.756 4.673 10.429 10.429 10.429s10.429-4.673 10.429-10.429c0-3.63-1.86-6.83-4.677-8.698v2.257c0 1.525-.606 2.988-1.684 4.066-1.079 1.079-2.542 1.685-4.067 1.685h-.002c-1.526 0-2.988-.606-4.067-1.685-1.078-1.078-1.684-2.541-1.684-4.066zm7.584 2.257v-10.751c0-.485-.193-.951-.536-1.294-.344-.343-.809-.536-1.295-.536h-.002c-.486 0-.952.193-1.295.536s-.536.809-.536 1.294v10.751c0 .486.193.951.536 1.294.343.344.809.537 1.295.537h.002c.486 0 .951-.193 1.295-.537.343-.343.536-.808.536-1.294z" fill="url(#_Linear1)"/></svg>