<svg id="Layer_1" enable-background="new 0 0 512 512" viewBox="0 0 512 512" xmlns="http://www.w3.org/2000/svg" xmlns:xlink="http://www.w3.org/1999/xlink"><linearGradient id="SVGID_1_" gradientUnits="userSpaceOnUse" x1="34.374" x2="477.627" y1="256" y2="256"><stop offset="0" stop-color="#a647fe"/><stop offset=".1488" stop-color="#a04cfc"/><stop offset=".3414" stop-color="#905af8"/><stop offset=".5582" stop-color="#7571f0"/><stop offset=".7908" stop-color="#5191e5"/><stop offset="1" stop-color="#29b4d9"/></linearGradient><path d="m448.67 300.79c-14.38-5.66-32.76-9.08-52.42-9.81v-22.25c0-4.42-3.58-8.01-8.01-8.01h-124.23v-57.83h86.61c37.38 0 67.79-30.41 67.79-67.79 0-36.5-29-66.36-65.17-67.74 0-.14 0-.29 0-.43 0-36.91-30.02-66.94-66.91-66.94-19.75 0-38.5 8.79-51.17 23.77-3.85-.74-7.76-1.12-11.71-1.12-14.61 0-28.75 5.25-39.8 14.79-9.17 7.91-15.75 18.35-18.95 29.88h-3.33c-37.38 0-67.79 30.41-67.79 67.79s30.41 67.79 67.79 67.79h86.61v57.83h-124.22c-4.42 0-8.01 3.58-8.01 8.01v22.25c-19.67.73-38.05 4.15-52.42 9.81-18.67 7.36-28.96 18.05-28.96 30.1v141.05c0 12.08 10.27 22.78 28.91 30.12 16.28 6.41 37.76 9.94 60.49 9.94s44.21-3.53 60.49-9.94c18.64-7.34 28.91-18.04 28.91-30.12v-141.05c0-12.06-10.28-22.75-28.95-30.1-14.38-5.66-32.76-9.08-52.44-9.81v-14.24h248.46v14.24c-19.68.73-38.06 4.15-52.43 9.81-18.67 7.35-28.95 18.04-28.95 30.1v141.05c0 12.08 10.27 22.78 28.91 30.12 16.28 6.41 37.76 9.94 60.48 9.94s44.21-3.53 60.49-9.94c18.64-7.34 28.91-18.04 28.91-30.12v-141.05c-.02-12.06-10.31-22.75-28.98-30.1zm-339.07-165.69c0-28.55 23.23-51.77 51.77-51.77h9.78c3.94 0 7.3-2.87 7.91-6.77 3.44-21.96 22.11-37.91 44.39-37.91 4.29 0 8.54.6 12.63 1.78 3.26.94 6.77-.27 8.74-3.04 9.57-13.39 25.09-21.39 41.51-21.39 28.06 0 50.9 22.84 50.9 50.92 0 2.45-.17 4.89-.51 7.25-.33 2.3.35 4.63 1.87 6.39s3.73 2.77 6.05 2.77h5.98c28.55 0 51.77 23.23 51.77 51.77s-23.23 51.77-51.77 51.77h-189.24c-28.55.01-51.78-23.22-51.78-51.77zm87.54 289.99c0 3.62-4.91 9.78-18.76 15.24-14.46 5.7-33.85 8.84-54.61 8.84s-40.15-3.14-54.61-8.84c-13.85-5.46-18.76-11.62-18.76-15.24v-23.19c3.7 2.35 8 4.51 12.89 6.43 16.28 6.41 37.76 9.94 60.49 9.94s44.21-3.53 60.49-9.94c4.89-1.92 9.19-4.08 12.89-6.43v23.19zm0-46.89c0 9.81-28.58 24.05-73.38 24.05s-73.38-14.25-73.38-24.05v-23.66c3.71 2.36 8.04 4.52 12.94 6.46 16.31 6.43 37.78 9.96 60.43 9.96 22.67 0 44.13-3.54 60.44-9.96 4.9-1.93 9.22-4.1 12.93-6.45v23.65zm-73.38 117.8c-44.79 0-73.38-14.25-73.38-24.05v-23.16c3.7 2.35 8 4.51 12.89 6.44 16.28 6.42 37.77 9.96 60.49 9.96s44.2-3.54 60.49-9.96c4.88-1.93 9.19-4.08 12.89-6.44v23.16c0 9.8-28.58 24.05-73.38 24.05zm73.38-165.11c0 3.6-4.92 9.73-18.8 15.2-14.49 5.71-33.87 8.85-54.57 8.85s-40.07-3.14-54.56-8.85c-13.89-5.47-18.81-11.61-18.81-15.2s4.93-9.73 18.81-15.2c14.49-5.71 33.87-8.85 54.56-8.85 20.71 0 40.09 3.14 54.57 8.85 13.87 5.47 18.8 11.61 18.8 15.2zm264.47 94.2c0 3.62-4.91 9.78-18.76 15.24-14.46 5.7-33.85 8.84-54.61 8.84s-40.15-3.14-54.61-8.84c-13.85-5.46-18.76-11.62-18.76-15.24v-23.19c3.7 2.35 8 4.51 12.89 6.43 16.28 6.41 37.76 9.94 60.48 9.94s44.21-3.53 60.49-9.94c4.89-1.92 9.19-4.08 12.89-6.43v23.19zm0-46.89c0 9.81-28.58 24.05-73.38 24.05-44.79 0-73.37-14.25-73.37-24.05v-23.66c3.71 2.36 8.03 4.52 12.93 6.45 16.31 6.43 37.78 9.96 60.44 9.96s44.12-3.54 60.43-9.96c4.91-1.93 9.23-4.1 12.94-6.46v23.67zm-127.95-62.51c14.49-5.71 33.87-8.85 54.57-8.85s40.07 3.14 54.56 8.85c13.89 5.47 18.81 11.61 18.81 15.2s-4.93 9.73-18.81 15.2c-14.49 5.71-33.87 8.85-54.56 8.85-20.71 0-40.09-3.14-54.57-8.85-13.88-5.47-18.8-11.61-18.8-15.2s4.93-9.73 18.8-15.2zm54.58 180.31c-44.79 0-73.37-14.25-73.37-24.05v-23.16c3.7 2.35 8 4.51 12.89 6.44 16.28 6.42 37.77 9.96 60.49 9.96s44.2-3.54 60.49-9.96c4.88-1.93 9.19-4.08 12.89-6.44v23.16c-.02 9.8-28.6 24.05-73.39 24.05zm-18.57-110.29c-.55 4.02-3.98 6.93-7.93 6.93-.36 0-.72-.02-1.09-.07-8.3-1.13-16.06-2.74-23.08-4.78-4.25-1.24-6.68-5.69-5.44-9.93 1.24-4.25 5.68-6.69 9.93-5.44 6.25 1.83 13.23 3.27 20.74 4.29 4.39.59 7.46 4.62 6.87 9zm0 47.37c-.55 4.02-3.98 6.93-7.93 6.93-.36 0-.72-.02-1.09-.07-8.3-1.13-16.06-2.74-23.08-4.78-4.25-1.24-6.68-5.69-5.44-9.93 1.24-4.25 5.68-6.68 9.93-5.44 6.25 1.83 13.23 3.27 20.74 4.29 4.39.58 7.46 4.62 6.87 9zm0 47.4c-.55 4.02-3.98 6.93-7.93 6.93-.36 0-.72-.02-1.09-.07-8.18-1.11-15.94-2.73-23.08-4.81-4.25-1.24-6.68-5.69-5.44-9.93 1.24-4.25 5.68-6.68 9.93-5.44 6.38 1.86 13.35 3.31 20.74 4.32 4.39.58 7.46 4.61 6.87 9zm-264.47-94.77c-.55 4.02-3.98 6.93-7.93 6.93-.36 0-.72-.02-1.09-.07-8.3-1.13-16.06-2.74-23.08-4.78-4.25-1.24-6.68-5.69-5.44-9.93 1.24-4.25 5.68-6.69 9.93-5.44 6.26 1.83 13.24 3.27 20.75 4.29 4.38.59 7.45 4.62 6.86 9zm0 47.37c-.55 4.02-3.98 6.93-7.93 6.93-.36 0-.72-.02-1.09-.07-8.3-1.13-16.06-2.74-23.08-4.78-4.25-1.24-6.68-5.69-5.44-9.93 1.24-4.25 5.68-6.68 9.93-5.44 6.26 1.83 13.24 3.27 20.75 4.29 4.38.58 7.45 4.62 6.86 9zm0 47.4c-.55 4.02-3.98 6.93-7.93 6.93-.36 0-.72-.02-1.09-.07-8.18-1.11-15.94-2.73-23.08-4.81-4.25-1.24-6.68-5.69-5.44-9.93 1.24-4.25 5.68-6.68 9.93-5.44 6.38 1.86 13.36 3.31 20.75 4.32 4.38.58 7.45 4.61 6.86 9z" fill="url(#SVGID_1_)"/></svg>