<svg id="Layer_1" enable-background="new 0 0 800 800" viewBox="0 0 800 800" xmlns="http://www.w3.org/2000/svg" xmlns:xlink="http://www.w3.org/1999/xlink"><linearGradient id="SVGID_1_" gradientUnits="userSpaceOnUse" x1="58.4" x2="741.7" y1="400" y2="400"><stop offset=".00000011188" stop-color="#b64dff"/><stop offset="1" stop-color="#11bbe9"/></linearGradient><path d="m216.7 58.4c-67.5 0-104.7 0-131.5 26.8-26.8 26.9-26.8 64-26.8 131.5v366.6c0 67.5 0 104.7 26.8 131.5 26.9 26.9 64 26.9 131.5 26.9 67.4 0 104.7.1 131.5-26.8s26.8-64 26.8-131.5v-366.7c0-67.5 0-104.7-26.8-131.5-26.9-26.8-64-26.8-131.5-26.8zm108.3 524.9c0 58.2-.5 84.4-12.2 96.1s-37.9 12.2-96.1 12.2-84.4-.5-96.1-12.2-12.2-37.9-12.2-96.1v-366.7c0-58.2.5-84.4 12.2-96.1s37.9-12.2 96.1-12.2 84.4.5 96.1 12.3c11.7 11.7 12.2 37.9 12.2 96.1zm258.3-225c-67.5 0-104.7 0-131.5 26.8-26.8 26.9-26.8 64-26.8 131.5v66.7c0 67.5 0 104.7 26.8 131.6 26.9 26.8 64 26.8 131.5 26.8s104.7 0 131.4-26.9c26.9-26.9 26.9-64 26.9-131.5v-66.7c0-67.5 0-104.7-26.8-131.5-26.9-26.8-64-26.8-131.5-26.8zm108.3 225c0 58.2-.5 84.4-12.2 96.1s-37.9 12.2-96.1 12.2-84.4-.5-96.1-12.2-12.2-37.9-12.2-96.1v-66.7c0-58.2.5-84.4 12.2-96.1s37.9-12.2 96.1-12.2 84.4.5 96.1 12.2 12.2 37.9 12.2 96.1zm-210-282c16.8 7 35.1 7 68.4 7h66.7c33.2 0 51.5 0 68.4-7 22.6-9.4 40.2-27 49.6-49.6 7-16.8 7-35.2 7-68.4s0-51.6-7-68.4c-9.4-22.6-27-40.2-49.6-49.6-16.8-7-35.1-7-68.4-7h-66.7c-33.2 0-51.6 0-68.4 7-22.6 9.4-40.2 27-49.6 49.6-7 16.8-7 35.1-7 68.4 0 33.2 0 51.6 7 68.4 9.4 22.6 27 40.2 49.6 49.6zm-3.4-167.3c4.2-10.2 12.2-18.2 22.5-22.5 7.7-3.2 22.5-3.2 49.3-3.2h66.8c26.9 0 41.6 0 49.3 3.2 10.2 4.2 18.2 12.2 22.5 22.5 3.2 7.7 3.2 22.5 3.2 49.3 0 26.9 0 41.6-3.2 49.3-4.2 10.2-12.2 18.2-22.5 22.5-7.7 3.2-22.5 3.2-49.3 3.2h-66.7c-26.9 0-41.6 0-49.3-3.2-10.3-4.2-18.3-12.2-22.6-22.5-3.2-7.7-3.2-22.5-3.2-49.3 0-26.9 0-41.6 3.2-49.3z" fill="url(#SVGID_1_)"/></svg>